<?xml version="1.0" standalone="no"?><!DOCTYPE svg PUBLIC "-//W3C//DTD SVG 1.1//EN" "http://www.w3.org/Graphics/SVG/1.1/DTD/svg11.dtd"><svg t="1589439983319" class="icon" viewBox="0 0 1024 1024" version="1.1" xmlns="http://www.w3.org/2000/svg" p-id="6730" xmlns:xlink="http://www.w3.org/1999/xlink" width="80" height="80"><defs><style type="text/css"></style></defs><path d="M128 128a64 64 0 0 0-64 64v704a64 64 0 0 0 64 64h768a64 64 0 0 0 64-64V192a64 64 0 0 0-64-64H128z m0-64h768a128 128 0 0 1 128 128v704a128 128 0 0 1-128 128H128a128 128 0 0 1-128-128V192a128 128 0 0 1 128-128z" fill="#333333" p-id="6731"></path><path d="M960 288a32 32 0 1 1 0 64H64a32 32 0 0 1 0-64h896zM288 32a32 32 0 0 1 64 0v128a32 32 0 0 1-64 0v-128zM672 32a32 32 0 1 1 64 0v128a32 32 0 1 1-64 0v-128zM832 512a32 32 0 1 1 0 64H448a32 32 0 0 1 0-64h384zM297.088 476.864a32 32 0 0 1 45.888 44.672l-74.688 76.8a32 32 0 0 1-45.888 0l-53.312-54.912a32 32 0 1 1 45.888-44.608l30.4 31.296 51.712-53.248zM832 704a32 32 0 1 1 0 64H448a32 32 0 1 1 0-64h384zM297.088 668.864a32 32 0 1 1 45.888 44.672l-74.688 76.8a32 32 0 0 1-45.888 0l-53.312-54.912a32 32 0 0 1 45.888-44.608l30.4 31.296 51.712-53.248z" fill="#333333" p-id="6732"></path></svg>