<?xml version="1.0" standalone="no"?><!DOCTYPE svg PUBLIC "-//W3C//DTD SVG 1.1//EN" "http://www.w3.org/Graphics/SVG/1.1/DTD/svg11.dtd"><svg t="1590571425154" class="icon" viewBox="0 0 1024 1024" version="1.1" xmlns="http://www.w3.org/2000/svg" p-id="10136" xmlns:xlink="http://www.w3.org/1999/xlink" width="200" height="200"><defs><style type="text/css"></style></defs><path d="M236.544 965.632a86.4256 86.4256 0 0 1-86.016-87.04v-147.968H96.256a26.624 26.624 0 0 1 0-53.248h53.76v-131.584H96.256a26.624 26.624 0 0 1 0-53.248h53.76V346.624H96.256a26.624 26.624 0 1 1 0-53.248h53.248V140.8a86.7328 86.7328 0 0 1 86.016-87.04h632.832a86.4256 86.4256 0 0 1 86.016 87.04v737.792a86.7328 86.7328 0 0 1-86.016 87.04z m-31.744-87.04a32.1536 32.1536 0 0 0 30.72 32.256h457.216V110.592H235.52a30.72 30.72 0 0 0-30.72 30.72v152.576h63.488a26.624 26.624 0 0 1 0 53.248H204.8v145.408h63.488a26.624 26.624 0 1 1 0 53.248H204.8v131.584h63.488a26.624 26.624 0 1 1 0 53.248H204.8v147.968z m663.552 30.72a30.72 30.72 0 0 0 30.72-30.72V140.288a30.72 30.72 0 0 0-30.72-30.72h-124.416v799.744z" fill="#8a8a8a" p-id="10137"></path><path d="M405.504 753.152a26.2656 26.2656 0 0 1-17.408-6.656 22.8352 22.8352 0 0 1-7.68-16.896 27.3408 27.3408 0 0 1 7.68-19.968l51.712-54.784-46.592-51.2a29.5936 29.5936 0 0 1-7.68-19.968 25.6 25.6 0 0 1 8.192-16.896 27.2896 27.2896 0 0 1 17.408-6.656 26.4704 26.4704 0 0 1 19.456 8.704l44.032 49.152 42.496-46.08a27.9552 27.9552 0 0 1 19.456-8.192 26.2656 26.2656 0 0 1 17.408 6.656 22.8352 22.8352 0 0 1 7.68 16.896 27.3408 27.3408 0 0 1-7.68 19.968l-45.568 48.64 48.64 54.272c9.216 10.752 9.216 27.648 0 36.352a25.9584 25.9584 0 0 1-16.896 6.656 26.7264 26.7264 0 0 1-19.968-8.704l-46.08-51.2-49.152 51.712a25.9584 25.9584 0 0 1-19.456 8.192z" fill="#8a8a8a" p-id="10138"></path><path d="M403.456 491.52a26.2656 26.2656 0 0 1-17.408-6.656 22.8352 22.8352 0 0 1-7.68-16.896 27.3408 27.3408 0 0 1 7.68-19.968l51.712-54.784-46.592-51.2a24.6272 24.6272 0 0 1-7.168-18.944 26.624 26.624 0 0 1 8.192-17.92 25.9584 25.9584 0 0 1 16.896-6.656 26.7264 26.7264 0 0 1 19.968 8.704l44.032 49.152 42.496-46.08a27.9552 27.9552 0 0 1 19.456-8.192 26.2656 26.2656 0 0 1 17.408 6.656 22.8352 22.8352 0 0 1 7.68 16.896 27.3408 27.3408 0 0 1-7.68 19.968l-46.08 48.64 48.64 54.272c9.216 10.752 9.216 27.648 0 36.352a25.9584 25.9584 0 0 1-16.896 6.656 26.7264 26.7264 0 0 1-19.968-8.704l-46.08-51.2-49.152 52.224a29.9008 29.9008 0 0 1-19.456 7.68z" fill="#8a8a8a" p-id="10139"></path></svg>