<?xml version="1.0" standalone="no"?><!DOCTYPE svg PUBLIC "-//W3C//DTD SVG 1.1//EN" "http://www.w3.org/Graphics/SVG/1.1/DTD/svg11.dtd"><svg t="1590571420780" class="icon" viewBox="0 0 1024 1024" version="1.1" xmlns="http://www.w3.org/2000/svg" p-id="9951" xmlns:xlink="http://www.w3.org/1999/xlink" width="200" height="200"><defs><style type="text/css"></style></defs><path d="M254 440.778V843h515V440.778H254z m-18-36h551c9.941 0 18 8.059 18 18V861c0 9.941-8.059 18-18 18H236c-9.941 0-18-8.059-18-18V422.778c0-9.941 8.059-18 18-18z" fill="#8a8a8a" p-id="9952"></path><path d="M702.01 422.778c0 9.94-8.06 18-18 18-9.942 0-18-8.06-18-18v-91.511c0-81.89-66.3-148.267-148.073-148.267-81.774 0-148.073 66.377-148.073 148.267v91.51c0 9.942-8.058 18-18 18-9.94 0-18-8.058-18-18v-91.51C333.864 229.504 416.272 147 517.937 147s184.072 82.504 184.072 184.267v91.51z" fill="#8a8a8a" p-id="9953"></path><path d="M498.716 555.86c0-9.94 8.059-18 18-18s18 8.06 18 18v158.265c0 9.94-8.059 18-18 18s-18-8.06-18-18V555.86z" fill="#8a8a8a" p-id="9954"></path></svg>