<?xml version="1.0" standalone="no"?><!DOCTYPE svg PUBLIC "-//W3C//DTD SVG 1.1//EN" "http://www.w3.org/Graphics/SVG/1.1/DTD/svg11.dtd"><svg t="1589439979661" class="icon" viewBox="0 0 1024 1024" version="1.1" xmlns="http://www.w3.org/2000/svg" p-id="6597" xmlns:xlink="http://www.w3.org/1999/xlink" width="80" height="80"><defs><style type="text/css"></style></defs><path d="M327.111111 876.088889l-147.911111 0c-6.257778 0-11.377778-5.12-11.377778-11.377778L167.822222 659.911111c0-6.257778 5.12-11.377778 11.377778-11.377778l147.911111 0c6.257778 0 11.377778 5.12 11.377778 11.377778l0 204.8C338.488889 870.968889 333.368889 876.088889 327.111111 876.088889zM600.177778 864.711111 600.177778 500.622222c0-6.257778-5.12-11.377778-11.377778-11.377778l-147.911111 0c-6.257778 0-11.377778 5.12-11.377778 11.377778l0 364.088889c0 6.257778 5.12 11.377778 11.377778 11.377778l147.911111 0C595.057778 876.088889 600.177778 870.968889 600.177778 864.711111zM888.046933 335.644444l-113.0496-195.754667c-5.415822-9.386667-14.290489-9.386667-19.706311 0L642.264178 335.644444c-5.415822 9.386667-0.989867 17.066667 9.853156 17.066667l39.082667 0 0 512c0 6.257778 5.12 11.377778 11.377778 11.377778l125.155556 0c6.257778 0 11.377778-5.12 11.377778-11.377778L839.111111 352.711111l39.082667 0C889.025422 352.711111 893.462756 345.031111 888.046933 335.644444z" p-id="6598"></path></svg>